<mxfile host="app.diagrams.net" modified="2021-01-27T01:19:56.550Z" agent="5.0 (Windows NT 6.1; WOW64) AppleWebKit/537.36 (KHTML, like Gecko) Chrome/70.0.3538.25 Safari/537.36 Core/1.70.3861.400 QQBrowser/10.7.4313.400" etag="RKk7ZGSJNVHbtJBfU9KO" version="14.2.2" type="github">
  <diagram id="WVVKsaKbuHrxuGgJgDT6" name="Page-1">
    <mxGraphModel dx="926" dy="424" grid="1" gridSize="10" guides="1" tooltips="1" connect="1" arrows="1" fold="1" page="1" pageScale="1" pageWidth="827" pageHeight="1169" math="0" shadow="0">
      <root>
        <mxCell id="0" />
        <mxCell id="1" parent="0" />
        <mxCell id="iQWIhHvsiNZg3R8XxYZo-1" value="mnt" style="text;html=1;strokeColor=none;fillColor=none;align=center;verticalAlign=middle;whiteSpace=wrap;rounded=0;" vertex="1" parent="1">
          <mxGeometry x="80" y="200" width="40" height="20" as="geometry" />
        </mxCell>
        <mxCell id="iQWIhHvsiNZg3R8XxYZo-2" value="118" style="text;html=1;strokeColor=none;fillColor=none;align=center;verticalAlign=middle;whiteSpace=wrap;rounded=0;" vertex="1" parent="1">
          <mxGeometry x="100" y="200" width="40" height="20" as="geometry" />
        </mxCell>
        <mxCell id="iQWIhHvsiNZg3R8XxYZo-3" value="137:20" style="text;html=1;strokeColor=none;fillColor=none;align=center;verticalAlign=middle;whiteSpace=wrap;rounded=0;" vertex="1" parent="1">
          <mxGeometry x="100" y="340" width="40" height="20" as="geometry" />
        </mxCell>
        <mxCell id="iQWIhHvsiNZg3R8XxYZo-4" value="" style="endArrow=none;html=1;entryX=0.5;entryY=1;entryDx=0;entryDy=0;exitX=0.5;exitY=0;exitDx=0;exitDy=0;" edge="1" parent="1" source="iQWIhHvsiNZg3R8XxYZo-3" target="iQWIhHvsiNZg3R8XxYZo-2">
          <mxGeometry width="50" height="50" relative="1" as="geometry">
            <mxPoint x="210" y="340" as="sourcePoint" />
            <mxPoint x="260" y="290" as="targetPoint" />
          </mxGeometry>
        </mxCell>
        <mxCell id="iQWIhHvsiNZg3R8XxYZo-5" value="140:1330" style="text;html=1;strokeColor=none;fillColor=none;align=center;verticalAlign=middle;whiteSpace=wrap;rounded=0;" vertex="1" parent="1">
          <mxGeometry x="100" y="460" width="40" height="20" as="geometry" />
        </mxCell>
        <mxCell id="iQWIhHvsiNZg3R8XxYZo-6" value="" style="endArrow=none;html=1;entryX=0.5;entryY=1;entryDx=0;entryDy=0;exitX=0.5;exitY=0;exitDx=0;exitDy=0;" edge="1" parent="1" source="iQWIhHvsiNZg3R8XxYZo-5" target="iQWIhHvsiNZg3R8XxYZo-3">
          <mxGeometry width="50" height="50" relative="1" as="geometry">
            <mxPoint x="190" y="410" as="sourcePoint" />
            <mxPoint x="240" y="360" as="targetPoint" />
          </mxGeometry>
        </mxCell>
        <mxCell id="iQWIhHvsiNZg3R8XxYZo-7" value="emulated" style="text;html=1;strokeColor=none;fillColor=none;align=center;verticalAlign=middle;whiteSpace=wrap;rounded=0;" vertex="1" parent="1">
          <mxGeometry x="50" y="340" width="40" height="20" as="geometry" />
        </mxCell>
        <mxCell id="iQWIhHvsiNZg3R8XxYZo-8" value="1215:20" style="text;html=1;strokeColor=none;fillColor=none;align=center;verticalAlign=middle;whiteSpace=wrap;rounded=0;" vertex="1" parent="1">
          <mxGeometry x="300" y="340" width="40" height="20" as="geometry" />
        </mxCell>
        <mxCell id="iQWIhHvsiNZg3R8XxYZo-9" value="1198" style="text;html=1;strokeColor=none;fillColor=none;align=center;verticalAlign=middle;whiteSpace=wrap;rounded=0;" vertex="1" parent="1">
          <mxGeometry x="370" y="180" width="40" height="20" as="geometry" />
        </mxCell>
        <mxCell id="iQWIhHvsiNZg3R8XxYZo-10" value="1218:1330" style="text;html=1;strokeColor=none;fillColor=none;align=center;verticalAlign=middle;whiteSpace=wrap;rounded=0;" vertex="1" parent="1">
          <mxGeometry x="300" y="460" width="40" height="20" as="geometry" />
        </mxCell>
        <mxCell id="iQWIhHvsiNZg3R8XxYZo-11" value="" style="endArrow=none;html=1;entryX=0.5;entryY=1;entryDx=0;entryDy=0;exitX=0.5;exitY=0;exitDx=0;exitDy=0;" edge="1" parent="1" source="iQWIhHvsiNZg3R8XxYZo-8" target="iQWIhHvsiNZg3R8XxYZo-9">
          <mxGeometry width="50" height="50" relative="1" as="geometry">
            <mxPoint x="350" y="320" as="sourcePoint" />
            <mxPoint x="400" y="270" as="targetPoint" />
          </mxGeometry>
        </mxCell>
        <mxCell id="iQWIhHvsiNZg3R8XxYZo-12" value="" style="endArrow=none;html=1;entryX=0.5;entryY=1;entryDx=0;entryDy=0;" edge="1" parent="1" source="iQWIhHvsiNZg3R8XxYZo-10" target="iQWIhHvsiNZg3R8XxYZo-8">
          <mxGeometry width="50" height="50" relative="1" as="geometry">
            <mxPoint x="400" y="410" as="sourcePoint" />
            <mxPoint x="450" y="360" as="targetPoint" />
          </mxGeometry>
        </mxCell>
        <mxCell id="iQWIhHvsiNZg3R8XxYZo-13" value="mnt" style="text;html=1;strokeColor=none;fillColor=none;align=center;verticalAlign=middle;whiteSpace=wrap;rounded=0;" vertex="1" parent="1">
          <mxGeometry x="340" y="180" width="40" height="20" as="geometry" />
        </mxCell>
        <mxCell id="iQWIhHvsiNZg3R8XxYZo-14" value="emulated" style="text;html=1;strokeColor=none;fillColor=none;align=center;verticalAlign=middle;whiteSpace=wrap;rounded=0;" vertex="1" parent="1">
          <mxGeometry x="250" y="340" width="40" height="20" as="geometry" />
        </mxCell>
        <mxCell id="iQWIhHvsiNZg3R8XxYZo-17" style="edgeStyle=orthogonalEdgeStyle;rounded=0;orthogonalLoop=1;jettySize=auto;html=1;entryX=0.5;entryY=1;entryDx=0;entryDy=0;" edge="1" parent="1" source="iQWIhHvsiNZg3R8XxYZo-15" target="iQWIhHvsiNZg3R8XxYZo-16">
          <mxGeometry relative="1" as="geometry" />
        </mxCell>
        <mxCell id="iQWIhHvsiNZg3R8XxYZo-15" value="1252:20" style="text;html=1;strokeColor=none;fillColor=none;align=center;verticalAlign=middle;whiteSpace=wrap;rounded=0;" vertex="1" parent="1">
          <mxGeometry x="470" y="470" width="40" height="20" as="geometry" />
        </mxCell>
        <mxCell id="iQWIhHvsiNZg3R8XxYZo-16" value="1250" style="text;html=1;strokeColor=none;fillColor=none;align=center;verticalAlign=middle;whiteSpace=wrap;rounded=0;" vertex="1" parent="1">
          <mxGeometry x="470" y="340" width="40" height="20" as="geometry" />
        </mxCell>
        <mxCell id="iQWIhHvsiNZg3R8XxYZo-18" value="self" style="text;html=1;strokeColor=none;fillColor=none;align=center;verticalAlign=middle;whiteSpace=wrap;rounded=0;" vertex="1" parent="1">
          <mxGeometry x="500" y="340" width="40" height="20" as="geometry" />
        </mxCell>
        <mxCell id="iQWIhHvsiNZg3R8XxYZo-20" value="" style="endArrow=classic;html=1;exitX=0.5;exitY=0;exitDx=0;exitDy=0;entryX=1;entryY=0.5;entryDx=0;entryDy=0;" edge="1" parent="1" source="iQWIhHvsiNZg3R8XxYZo-16" target="iQWIhHvsiNZg3R8XxYZo-9">
          <mxGeometry width="50" height="50" relative="1" as="geometry">
            <mxPoint x="430" y="310" as="sourcePoint" />
            <mxPoint x="480" y="260" as="targetPoint" />
          </mxGeometry>
        </mxCell>
        <mxCell id="iQWIhHvsiNZg3R8XxYZo-22" value="storage" style="text;html=1;strokeColor=none;fillColor=none;align=center;verticalAlign=middle;whiteSpace=wrap;rounded=0;" vertex="1" parent="1">
          <mxGeometry x="414" y="180" width="40" height="20" as="geometry" />
        </mxCell>
        <mxCell id="iQWIhHvsiNZg3R8XxYZo-28" value="1251:1330" style="text;html=1;strokeColor=none;fillColor=none;align=center;verticalAlign=middle;whiteSpace=wrap;rounded=0;" vertex="1" parent="1">
          <mxGeometry x="560" y="470" width="40" height="20" as="geometry" />
        </mxCell>
        <mxCell id="iQWIhHvsiNZg3R8XxYZo-29" value="" style="endArrow=classic;html=1;exitX=0.5;exitY=0;exitDx=0;exitDy=0;entryX=0;entryY=1;entryDx=0;entryDy=0;" edge="1" parent="1" source="iQWIhHvsiNZg3R8XxYZo-28" target="iQWIhHvsiNZg3R8XxYZo-18">
          <mxGeometry width="50" height="50" relative="1" as="geometry">
            <mxPoint x="560" y="450" as="sourcePoint" />
            <mxPoint x="610" y="400" as="targetPoint" />
          </mxGeometry>
        </mxCell>
        <mxCell id="iQWIhHvsiNZg3R8XxYZo-30" value="1160:20" style="text;html=1;strokeColor=none;fillColor=none;align=center;verticalAlign=middle;whiteSpace=wrap;rounded=0;" vertex="1" parent="1">
          <mxGeometry x="640" y="350" width="40" height="10" as="geometry" />
        </mxCell>
        <mxCell id="iQWIhHvsiNZg3R8XxYZo-31" value="1143" style="text;html=1;strokeColor=none;fillColor=none;align=center;verticalAlign=middle;whiteSpace=wrap;rounded=0;" vertex="1" parent="1">
          <mxGeometry x="660" y="180" width="40" height="20" as="geometry" />
        </mxCell>
        <mxCell id="iQWIhHvsiNZg3R8XxYZo-34" value="" style="endArrow=classic;html=1;exitX=0.5;exitY=0;exitDx=0;exitDy=0;entryX=0.5;entryY=1;entryDx=0;entryDy=0;" edge="1" parent="1" source="iQWIhHvsiNZg3R8XxYZo-30" target="iQWIhHvsiNZg3R8XxYZo-31">
          <mxGeometry width="50" height="50" relative="1" as="geometry">
            <mxPoint x="680" y="360" as="sourcePoint" />
            <mxPoint x="730" y="310" as="targetPoint" />
          </mxGeometry>
        </mxCell>
        <mxCell id="iQWIhHvsiNZg3R8XxYZo-35" value="1163:1330" style="text;html=1;strokeColor=none;fillColor=none;align=center;verticalAlign=middle;whiteSpace=wrap;rounded=0;" vertex="1" parent="1">
          <mxGeometry x="650" y="470" width="40" height="20" as="geometry" />
        </mxCell>
        <mxCell id="iQWIhHvsiNZg3R8XxYZo-36" value="" style="endArrow=classic;html=1;exitX=0.593;exitY=-0.15;exitDx=0;exitDy=0;exitPerimeter=0;entryX=0.45;entryY=1.319;entryDx=0;entryDy=0;entryPerimeter=0;" edge="1" parent="1" source="iQWIhHvsiNZg3R8XxYZo-35" target="iQWIhHvsiNZg3R8XxYZo-30">
          <mxGeometry width="50" height="50" relative="1" as="geometry">
            <mxPoint x="700" y="430" as="sourcePoint" />
            <mxPoint x="750" y="380" as="targetPoint" />
          </mxGeometry>
        </mxCell>
        <mxCell id="iQWIhHvsiNZg3R8XxYZo-37" value="mnt" style="text;html=1;strokeColor=none;fillColor=none;align=center;verticalAlign=middle;whiteSpace=wrap;rounded=0;" vertex="1" parent="1">
          <mxGeometry x="630" y="180" width="40" height="20" as="geometry" />
        </mxCell>
        <mxCell id="iQWIhHvsiNZg3R8XxYZo-38" value="emulated" style="text;html=1;strokeColor=none;fillColor=none;align=center;verticalAlign=middle;whiteSpace=wrap;rounded=0;" vertex="1" parent="1">
          <mxGeometry x="590" y="345" width="40" height="20" as="geometry" />
        </mxCell>
        <mxCell id="iQWIhHvsiNZg3R8XxYZo-40" value="1196:20" style="text;html=1;strokeColor=none;fillColor=none;align=center;verticalAlign=middle;whiteSpace=wrap;rounded=0;" vertex="1" parent="1">
          <mxGeometry x="873" y="470" width="40" height="20" as="geometry" />
        </mxCell>
        <mxCell id="iQWIhHvsiNZg3R8XxYZo-42" value="self" style="text;html=1;strokeColor=none;fillColor=none;align=center;verticalAlign=middle;whiteSpace=wrap;rounded=0;" vertex="1" parent="1">
          <mxGeometry x="780" y="330" width="40" height="20" as="geometry" />
        </mxCell>
        <mxCell id="iQWIhHvsiNZg3R8XxYZo-43" value="" style="endArrow=classic;html=1;" edge="1" parent="1" source="iQWIhHvsiNZg3R8XxYZo-40">
          <mxGeometry width="50" height="50" relative="1" as="geometry">
            <mxPoint x="943" y="470" as="sourcePoint" />
            <mxPoint x="780" y="370" as="targetPoint" />
          </mxGeometry>
        </mxCell>
        <mxCell id="iQWIhHvsiNZg3R8XxYZo-45" value="1194:20" style="text;html=1;strokeColor=none;fillColor=none;align=center;verticalAlign=middle;whiteSpace=wrap;rounded=0;" vertex="1" parent="1">
          <mxGeometry x="740" y="345" width="40" height="20" as="geometry" />
        </mxCell>
        <mxCell id="iQWIhHvsiNZg3R8XxYZo-46" value="" style="endArrow=classic;html=1;entryX=0.75;entryY=1;entryDx=0;entryDy=0;" edge="1" parent="1" source="iQWIhHvsiNZg3R8XxYZo-45" target="iQWIhHvsiNZg3R8XxYZo-31">
          <mxGeometry width="50" height="50" relative="1" as="geometry">
            <mxPoint x="740" y="350" as="sourcePoint" />
            <mxPoint x="790" y="300" as="targetPoint" />
          </mxGeometry>
        </mxCell>
        <mxCell id="iQWIhHvsiNZg3R8XxYZo-47" value="storage" style="text;html=1;strokeColor=none;fillColor=none;align=center;verticalAlign=middle;whiteSpace=wrap;rounded=0;" vertex="1" parent="1">
          <mxGeometry x="700" y="180" width="40" height="20" as="geometry" />
        </mxCell>
        <mxCell id="iQWIhHvsiNZg3R8XxYZo-48" value="emulated" style="text;html=1;strokeColor=none;fillColor=none;align=center;verticalAlign=middle;whiteSpace=wrap;rounded=0;" vertex="1" parent="1">
          <mxGeometry x="787" y="345" width="40" height="20" as="geometry" />
        </mxCell>
        <mxCell id="iQWIhHvsiNZg3R8XxYZo-49" value="1195:1330" style="text;html=1;strokeColor=none;fillColor=none;align=center;verticalAlign=middle;whiteSpace=wrap;rounded=0;" vertex="1" parent="1">
          <mxGeometry x="730" y="470" width="40" height="20" as="geometry" />
        </mxCell>
        <mxCell id="iQWIhHvsiNZg3R8XxYZo-50" value="" style="endArrow=classic;html=1;exitX=0.621;exitY=0.043;exitDx=0;exitDy=0;exitPerimeter=0;entryX=0.5;entryY=1;entryDx=0;entryDy=0;" edge="1" parent="1" source="iQWIhHvsiNZg3R8XxYZo-49" target="iQWIhHvsiNZg3R8XxYZo-45">
          <mxGeometry width="50" height="50" relative="1" as="geometry">
            <mxPoint x="890" y="470" as="sourcePoint" />
            <mxPoint x="940" y="420" as="targetPoint" />
          </mxGeometry>
        </mxCell>
        <mxCell id="iQWIhHvsiNZg3R8XxYZo-51" value="" style="endArrow=none;dashed=1;html=1;dashPattern=1 3;strokeWidth=2;entryX=0.25;entryY=1;entryDx=0;entryDy=0;exitX=0.5;exitY=0;exitDx=0;exitDy=0;" edge="1" parent="1" source="iQWIhHvsiNZg3R8XxYZo-14" target="iQWIhHvsiNZg3R8XxYZo-13">
          <mxGeometry width="50" height="50" relative="1" as="geometry">
            <mxPoint x="290" y="290" as="sourcePoint" />
            <mxPoint x="340" y="240" as="targetPoint" />
          </mxGeometry>
        </mxCell>
        <mxCell id="iQWIhHvsiNZg3R8XxYZo-52" value="" style="endArrow=none;dashed=1;html=1;entryX=0.75;entryY=1;entryDx=0;entryDy=0;exitX=0.25;exitY=0;exitDx=0;exitDy=0;" edge="1" parent="1" source="iQWIhHvsiNZg3R8XxYZo-18" target="iQWIhHvsiNZg3R8XxYZo-22">
          <mxGeometry width="50" height="50" relative="1" as="geometry">
            <mxPoint x="490" y="290" as="sourcePoint" />
            <mxPoint x="540" y="240" as="targetPoint" />
          </mxGeometry>
        </mxCell>
        <mxCell id="iQWIhHvsiNZg3R8XxYZo-53" value="" style="endArrow=none;dashed=1;html=1;dashPattern=1 3;strokeWidth=2;entryX=0.414;entryY=0.971;entryDx=0;entryDy=0;entryPerimeter=0;" edge="1" parent="1" source="iQWIhHvsiNZg3R8XxYZo-38" target="iQWIhHvsiNZg3R8XxYZo-37">
          <mxGeometry width="50" height="50" relative="1" as="geometry">
            <mxPoint x="590" y="290" as="sourcePoint" />
            <mxPoint x="640" y="240" as="targetPoint" />
          </mxGeometry>
        </mxCell>
        <mxCell id="iQWIhHvsiNZg3R8XxYZo-54" value="" style="endArrow=none;dashed=1;html=1;dashPattern=1 3;strokeWidth=2;entryX=0;entryY=1;entryDx=0;entryDy=0;exitX=0.25;exitY=0;exitDx=0;exitDy=0;" edge="1" parent="1" source="iQWIhHvsiNZg3R8XxYZo-7" target="iQWIhHvsiNZg3R8XxYZo-2">
          <mxGeometry width="50" height="50" relative="1" as="geometry">
            <mxPoint x="40" y="300" as="sourcePoint" />
            <mxPoint x="90" y="250" as="targetPoint" />
          </mxGeometry>
        </mxCell>
        <mxCell id="iQWIhHvsiNZg3R8XxYZo-55" value="225" style="text;html=1;strokeColor=none;fillColor=none;align=center;verticalAlign=middle;whiteSpace=wrap;rounded=0;" vertex="1" parent="1">
          <mxGeometry x="1000" y="185" width="40" height="20" as="geometry" />
        </mxCell>
        <mxCell id="iQWIhHvsiNZg3R8XxYZo-56" value="242" style="text;html=1;strokeColor=none;fillColor=none;align=center;verticalAlign=middle;whiteSpace=wrap;rounded=0;" vertex="1" parent="1">
          <mxGeometry x="1000" y="330" width="40" height="20" as="geometry" />
        </mxCell>
        <mxCell id="iQWIhHvsiNZg3R8XxYZo-57" value="" style="endArrow=classic;html=1;entryX=0.5;entryY=1;entryDx=0;entryDy=0;" edge="1" parent="1" source="iQWIhHvsiNZg3R8XxYZo-56" target="iQWIhHvsiNZg3R8XxYZo-55">
          <mxGeometry width="50" height="50" relative="1" as="geometry">
            <mxPoint x="1030" y="320" as="sourcePoint" />
            <mxPoint x="1080" y="270" as="targetPoint" />
          </mxGeometry>
        </mxCell>
        <mxCell id="iQWIhHvsiNZg3R8XxYZo-61" value="mnt" style="text;html=1;strokeColor=none;fillColor=none;align=center;verticalAlign=middle;whiteSpace=wrap;rounded=0;" vertex="1" parent="1">
          <mxGeometry x="1030" y="185" width="40" height="20" as="geometry" />
        </mxCell>
        <mxCell id="iQWIhHvsiNZg3R8XxYZo-62" value="245:1330" style="text;html=1;strokeColor=none;fillColor=none;align=center;verticalAlign=middle;whiteSpace=wrap;rounded=0;" vertex="1" parent="1">
          <mxGeometry x="1000" y="470" width="40" height="20" as="geometry" />
        </mxCell>
        <mxCell id="iQWIhHvsiNZg3R8XxYZo-63" value="" style="endArrow=classic;html=1;exitX=0.5;exitY=0;exitDx=0;exitDy=0;entryX=0.5;entryY=1;entryDx=0;entryDy=0;" edge="1" parent="1" source="iQWIhHvsiNZg3R8XxYZo-62" target="iQWIhHvsiNZg3R8XxYZo-56">
          <mxGeometry width="50" height="50" relative="1" as="geometry">
            <mxPoint x="1050" y="480" as="sourcePoint" />
            <mxPoint x="1100" y="430" as="targetPoint" />
          </mxGeometry>
        </mxCell>
        <mxCell id="iQWIhHvsiNZg3R8XxYZo-64" value="emulated" style="text;html=1;strokeColor=none;fillColor=none;align=center;verticalAlign=middle;whiteSpace=wrap;rounded=0;" vertex="1" parent="1">
          <mxGeometry x="1040" y="330" width="40" height="20" as="geometry" />
        </mxCell>
        <mxCell id="iQWIhHvsiNZg3R8XxYZo-65" value="" style="endArrow=none;dashed=1;html=1;dashPattern=1 3;strokeWidth=2;entryX=0.386;entryY=1.007;entryDx=0;entryDy=0;entryPerimeter=0;" edge="1" parent="1" source="iQWIhHvsiNZg3R8XxYZo-64" target="iQWIhHvsiNZg3R8XxYZo-61">
          <mxGeometry width="50" height="50" relative="1" as="geometry">
            <mxPoint x="1130" y="350" as="sourcePoint" />
            <mxPoint x="1180" y="300" as="targetPoint" />
          </mxGeometry>
        </mxCell>
        <mxCell id="iQWIhHvsiNZg3R8XxYZo-66" value="275:20" style="text;html=1;strokeColor=none;fillColor=none;align=center;verticalAlign=middle;whiteSpace=wrap;rounded=0;" vertex="1" parent="1">
          <mxGeometry x="1130" y="330" width="40" height="20" as="geometry" />
        </mxCell>
        <mxCell id="iQWIhHvsiNZg3R8XxYZo-67" value="277:20" style="text;html=1;strokeColor=none;fillColor=none;align=center;verticalAlign=middle;whiteSpace=wrap;rounded=0;" vertex="1" parent="1">
          <mxGeometry x="1130" y="475" width="40" height="20" as="geometry" />
        </mxCell>
        <mxCell id="iQWIhHvsiNZg3R8XxYZo-68" value="" style="endArrow=classic;html=1;entryX=0.5;entryY=1;entryDx=0;entryDy=0;" edge="1" parent="1" source="iQWIhHvsiNZg3R8XxYZo-67" target="iQWIhHvsiNZg3R8XxYZo-66">
          <mxGeometry width="50" height="50" relative="1" as="geometry">
            <mxPoint x="1160" y="465" as="sourcePoint" />
            <mxPoint x="1210" y="415" as="targetPoint" />
          </mxGeometry>
        </mxCell>
        <mxCell id="iQWIhHvsiNZg3R8XxYZo-69" value="self" style="text;html=1;strokeColor=none;fillColor=none;align=center;verticalAlign=middle;whiteSpace=wrap;rounded=0;" vertex="1" parent="1">
          <mxGeometry x="1170" y="330" width="40" height="20" as="geometry" />
        </mxCell>
        <mxCell id="iQWIhHvsiNZg3R8XxYZo-74" value="" style="endArrow=classic;html=1;exitX=0.25;exitY=0;exitDx=0;exitDy=0;entryX=-0.086;entryY=1.179;entryDx=0;entryDy=0;entryPerimeter=0;" edge="1" parent="1" source="iQWIhHvsiNZg3R8XxYZo-66" target="iQWIhHvsiNZg3R8XxYZo-61">
          <mxGeometry width="50" height="50" relative="1" as="geometry">
            <mxPoint x="1140" y="310" as="sourcePoint" />
            <mxPoint x="1190" y="260" as="targetPoint" />
          </mxGeometry>
        </mxCell>
        <mxCell id="iQWIhHvsiNZg3R8XxYZo-75" value="storage" style="text;html=1;strokeColor=none;fillColor=none;align=center;verticalAlign=middle;whiteSpace=wrap;rounded=0;" vertex="1" parent="1">
          <mxGeometry x="1070" y="185" width="40" height="20" as="geometry" />
        </mxCell>
        <mxCell id="iQWIhHvsiNZg3R8XxYZo-77" value="" style="endArrow=none;dashed=1;html=1;dashPattern=1 3;strokeWidth=2;entryX=0.25;entryY=1;entryDx=0;entryDy=0;" edge="1" parent="1" target="iQWIhHvsiNZg3R8XxYZo-75">
          <mxGeometry width="50" height="50" relative="1" as="geometry">
            <mxPoint x="1190" y="330" as="sourcePoint" />
            <mxPoint x="1240" y="280" as="targetPoint" />
          </mxGeometry>
        </mxCell>
        <mxCell id="iQWIhHvsiNZg3R8XxYZo-78" value="1089" style="text;html=1;strokeColor=none;fillColor=none;align=center;verticalAlign=middle;whiteSpace=wrap;rounded=0;" vertex="1" parent="1">
          <mxGeometry x="1250" y="190" width="40" height="20" as="geometry" />
        </mxCell>
        <mxCell id="iQWIhHvsiNZg3R8XxYZo-79" value="1106" style="text;html=1;strokeColor=none;fillColor=none;align=center;verticalAlign=middle;whiteSpace=wrap;rounded=0;" vertex="1" parent="1">
          <mxGeometry x="1250" y="335" width="40" height="20" as="geometry" />
        </mxCell>
        <mxCell id="iQWIhHvsiNZg3R8XxYZo-80" value="" style="endArrow=classic;html=1;entryX=0.5;entryY=1;entryDx=0;entryDy=0;" edge="1" parent="1" source="iQWIhHvsiNZg3R8XxYZo-79" target="iQWIhHvsiNZg3R8XxYZo-78">
          <mxGeometry width="50" height="50" relative="1" as="geometry">
            <mxPoint x="1280" y="325" as="sourcePoint" />
            <mxPoint x="1330" y="275" as="targetPoint" />
          </mxGeometry>
        </mxCell>
        <mxCell id="iQWIhHvsiNZg3R8XxYZo-81" value="mnt" style="text;html=1;strokeColor=none;fillColor=none;align=center;verticalAlign=middle;whiteSpace=wrap;rounded=0;" vertex="1" parent="1">
          <mxGeometry x="1280" y="190" width="40" height="20" as="geometry" />
        </mxCell>
        <mxCell id="iQWIhHvsiNZg3R8XxYZo-82" value="1109:1330" style="text;html=1;strokeColor=none;fillColor=none;align=center;verticalAlign=middle;whiteSpace=wrap;rounded=0;" vertex="1" parent="1">
          <mxGeometry x="1250" y="475" width="40" height="20" as="geometry" />
        </mxCell>
        <mxCell id="iQWIhHvsiNZg3R8XxYZo-83" value="" style="endArrow=classic;html=1;exitX=0.5;exitY=0;exitDx=0;exitDy=0;entryX=0.5;entryY=1;entryDx=0;entryDy=0;" edge="1" parent="1" source="iQWIhHvsiNZg3R8XxYZo-82" target="iQWIhHvsiNZg3R8XxYZo-79">
          <mxGeometry width="50" height="50" relative="1" as="geometry">
            <mxPoint x="1300" y="485" as="sourcePoint" />
            <mxPoint x="1350" y="435" as="targetPoint" />
          </mxGeometry>
        </mxCell>
        <mxCell id="iQWIhHvsiNZg3R8XxYZo-84" value="" style="endArrow=none;dashed=1;html=1;dashPattern=1 3;strokeWidth=2;entryX=0.386;entryY=1.007;entryDx=0;entryDy=0;entryPerimeter=0;" edge="1" parent="1" target="iQWIhHvsiNZg3R8XxYZo-81">
          <mxGeometry width="50" height="50" relative="1" as="geometry">
            <mxPoint x="1308.9203618567403" y="335" as="sourcePoint" />
            <mxPoint x="1430" y="305" as="targetPoint" />
          </mxGeometry>
        </mxCell>
        <mxCell id="iQWIhHvsiNZg3R8XxYZo-85" value="emulated" style="text;html=1;strokeColor=none;fillColor=none;align=center;verticalAlign=middle;whiteSpace=wrap;rounded=0;" vertex="1" parent="1">
          <mxGeometry x="1290" y="335" width="40" height="20" as="geometry" />
        </mxCell>
        <mxCell id="iQWIhHvsiNZg3R8XxYZo-86" value="1139:20" style="text;html=1;strokeColor=none;fillColor=none;align=center;verticalAlign=middle;whiteSpace=wrap;rounded=0;" vertex="1" parent="1">
          <mxGeometry x="1370" y="340" width="40" height="20" as="geometry" />
        </mxCell>
        <mxCell id="iQWIhHvsiNZg3R8XxYZo-87" value="1141:20" style="text;html=1;strokeColor=none;fillColor=none;align=center;verticalAlign=middle;whiteSpace=wrap;rounded=0;" vertex="1" parent="1">
          <mxGeometry x="1370" y="485" width="40" height="20" as="geometry" />
        </mxCell>
        <mxCell id="iQWIhHvsiNZg3R8XxYZo-88" value="" style="endArrow=classic;html=1;entryX=0.5;entryY=1;entryDx=0;entryDy=0;" edge="1" parent="1" source="iQWIhHvsiNZg3R8XxYZo-87" target="iQWIhHvsiNZg3R8XxYZo-86">
          <mxGeometry width="50" height="50" relative="1" as="geometry">
            <mxPoint x="1400" y="475" as="sourcePoint" />
            <mxPoint x="1450" y="425" as="targetPoint" />
          </mxGeometry>
        </mxCell>
        <mxCell id="iQWIhHvsiNZg3R8XxYZo-89" value="self" style="text;html=1;strokeColor=none;fillColor=none;align=center;verticalAlign=middle;whiteSpace=wrap;rounded=0;" vertex="1" parent="1">
          <mxGeometry x="1400" y="340" width="40" height="20" as="geometry" />
        </mxCell>
        <mxCell id="iQWIhHvsiNZg3R8XxYZo-94" value="" style="endArrow=classic;html=1;exitX=0;exitY=0;exitDx=0;exitDy=0;entryX=0.864;entryY=1.129;entryDx=0;entryDy=0;entryPerimeter=0;" edge="1" parent="1" source="iQWIhHvsiNZg3R8XxYZo-89" target="iQWIhHvsiNZg3R8XxYZo-81">
          <mxGeometry width="50" height="50" relative="1" as="geometry">
            <mxPoint x="1380" y="280" as="sourcePoint" />
            <mxPoint x="1430" y="230" as="targetPoint" />
          </mxGeometry>
        </mxCell>
        <mxCell id="iQWIhHvsiNZg3R8XxYZo-95" value="1035" style="text;html=1;strokeColor=none;fillColor=none;align=center;verticalAlign=middle;whiteSpace=wrap;rounded=0;" vertex="1" parent="1">
          <mxGeometry x="1480" y="200" width="40" height="20" as="geometry" />
        </mxCell>
        <mxCell id="iQWIhHvsiNZg3R8XxYZo-96" value="1052:20" style="text;html=1;strokeColor=none;fillColor=none;align=center;verticalAlign=middle;whiteSpace=wrap;rounded=0;" vertex="1" parent="1">
          <mxGeometry x="1480" y="345" width="40" height="20" as="geometry" />
        </mxCell>
        <mxCell id="iQWIhHvsiNZg3R8XxYZo-97" value="" style="endArrow=classic;html=1;entryX=0.5;entryY=1;entryDx=0;entryDy=0;" edge="1" parent="1" source="iQWIhHvsiNZg3R8XxYZo-96" target="iQWIhHvsiNZg3R8XxYZo-95">
          <mxGeometry width="50" height="50" relative="1" as="geometry">
            <mxPoint x="1510" y="335" as="sourcePoint" />
            <mxPoint x="1560" y="285" as="targetPoint" />
          </mxGeometry>
        </mxCell>
        <mxCell id="iQWIhHvsiNZg3R8XxYZo-98" value="mnt" style="text;html=1;strokeColor=none;fillColor=none;align=center;verticalAlign=middle;whiteSpace=wrap;rounded=0;" vertex="1" parent="1">
          <mxGeometry x="1510" y="200" width="40" height="20" as="geometry" />
        </mxCell>
        <mxCell id="iQWIhHvsiNZg3R8XxYZo-99" value="1055:1330" style="text;html=1;strokeColor=none;fillColor=none;align=center;verticalAlign=middle;whiteSpace=wrap;rounded=0;" vertex="1" parent="1">
          <mxGeometry x="1480" y="485" width="40" height="20" as="geometry" />
        </mxCell>
        <mxCell id="iQWIhHvsiNZg3R8XxYZo-100" value="" style="endArrow=classic;html=1;exitX=0.5;exitY=0;exitDx=0;exitDy=0;entryX=0.5;entryY=1;entryDx=0;entryDy=0;" edge="1" parent="1" source="iQWIhHvsiNZg3R8XxYZo-99" target="iQWIhHvsiNZg3R8XxYZo-96">
          <mxGeometry width="50" height="50" relative="1" as="geometry">
            <mxPoint x="1530" y="495" as="sourcePoint" />
            <mxPoint x="1580" y="445" as="targetPoint" />
          </mxGeometry>
        </mxCell>
        <mxCell id="iQWIhHvsiNZg3R8XxYZo-101" value="" style="endArrow=none;dashed=1;html=1;dashPattern=1 3;strokeWidth=2;entryX=0.386;entryY=1.007;entryDx=0;entryDy=0;entryPerimeter=0;" edge="1" parent="1" target="iQWIhHvsiNZg3R8XxYZo-98">
          <mxGeometry width="50" height="50" relative="1" as="geometry">
            <mxPoint x="1538.9203618567403" y="345" as="sourcePoint" />
            <mxPoint x="1660" y="315" as="targetPoint" />
          </mxGeometry>
        </mxCell>
        <mxCell id="iQWIhHvsiNZg3R8XxYZo-102" value="emulated" style="text;html=1;strokeColor=none;fillColor=none;align=center;verticalAlign=middle;whiteSpace=wrap;rounded=0;" vertex="1" parent="1">
          <mxGeometry x="1530" y="350" width="40" height="20" as="geometry" />
        </mxCell>
        <mxCell id="iQWIhHvsiNZg3R8XxYZo-103" value="1085:20" style="text;html=1;strokeColor=none;fillColor=none;align=center;verticalAlign=middle;whiteSpace=wrap;rounded=0;" vertex="1" parent="1">
          <mxGeometry x="1640" y="345" width="40" height="20" as="geometry" />
        </mxCell>
        <mxCell id="iQWIhHvsiNZg3R8XxYZo-104" value="1087:20" style="text;html=1;strokeColor=none;fillColor=none;align=center;verticalAlign=middle;whiteSpace=wrap;rounded=0;" vertex="1" parent="1">
          <mxGeometry x="1640" y="490" width="40" height="20" as="geometry" />
        </mxCell>
        <mxCell id="iQWIhHvsiNZg3R8XxYZo-105" value="" style="endArrow=classic;html=1;entryX=0.5;entryY=1;entryDx=0;entryDy=0;" edge="1" parent="1" source="iQWIhHvsiNZg3R8XxYZo-104" target="iQWIhHvsiNZg3R8XxYZo-103">
          <mxGeometry width="50" height="50" relative="1" as="geometry">
            <mxPoint x="1670" y="480" as="sourcePoint" />
            <mxPoint x="1720" y="430" as="targetPoint" />
          </mxGeometry>
        </mxCell>
        <mxCell id="iQWIhHvsiNZg3R8XxYZo-106" value="emulated" style="text;html=1;strokeColor=none;fillColor=none;align=center;verticalAlign=middle;whiteSpace=wrap;rounded=0;" vertex="1" parent="1">
          <mxGeometry x="1690" y="345" width="40" height="20" as="geometry" />
        </mxCell>
        <mxCell id="iQWIhHvsiNZg3R8XxYZo-109" value="" style="endArrow=none;dashed=1;html=1;dashPattern=1 3;strokeWidth=2;entryX=0.386;entryY=1.007;entryDx=0;entryDy=0;entryPerimeter=0;" edge="1" parent="1" target="iQWIhHvsiNZg3R8XxYZo-106">
          <mxGeometry width="50" height="50" relative="1" as="geometry">
            <mxPoint x="1698.9203618567403" y="490" as="sourcePoint" />
            <mxPoint x="1820" y="460" as="targetPoint" />
          </mxGeometry>
        </mxCell>
        <mxCell id="iQWIhHvsiNZg3R8XxYZo-111" value="" style="endArrow=classic;html=1;exitX=0.5;exitY=0;exitDx=0;exitDy=0;entryX=0.614;entryY=1.086;entryDx=0;entryDy=0;entryPerimeter=0;" edge="1" parent="1" source="iQWIhHvsiNZg3R8XxYZo-103" target="iQWIhHvsiNZg3R8XxYZo-98">
          <mxGeometry width="50" height="50" relative="1" as="geometry">
            <mxPoint x="1650" y="320" as="sourcePoint" />
            <mxPoint x="1700" y="270" as="targetPoint" />
          </mxGeometry>
        </mxCell>
        <mxCell id="iQWIhHvsiNZg3R8XxYZo-112" value="storage" style="text;html=1;strokeColor=none;fillColor=none;align=center;verticalAlign=middle;whiteSpace=wrap;rounded=0;" vertex="1" parent="1">
          <mxGeometry x="1550" y="200" width="40" height="20" as="geometry" />
        </mxCell>
        <mxCell id="iQWIhHvsiNZg3R8XxYZo-113" value="1086:1330" style="text;html=1;strokeColor=none;fillColor=none;align=center;verticalAlign=middle;whiteSpace=wrap;rounded=0;" vertex="1" parent="1">
          <mxGeometry x="1750" y="490" width="40" height="20" as="geometry" />
        </mxCell>
        <mxCell id="iQWIhHvsiNZg3R8XxYZo-114" value="" style="endArrow=classic;html=1;entryX=0.914;entryY=1.036;entryDx=0;entryDy=0;entryPerimeter=0;" edge="1" parent="1" target="iQWIhHvsiNZg3R8XxYZo-106">
          <mxGeometry width="50" height="50" relative="1" as="geometry">
            <mxPoint x="1770" y="490" as="sourcePoint" />
            <mxPoint x="1890" y="430" as="targetPoint" />
          </mxGeometry>
        </mxCell>
        <mxCell id="iQWIhHvsiNZg3R8XxYZo-115" value="981" style="text;html=1;strokeColor=none;fillColor=none;align=center;verticalAlign=middle;whiteSpace=wrap;rounded=0;" vertex="1" parent="1">
          <mxGeometry x="1860" y="200" width="40" height="20" as="geometry" />
        </mxCell>
        <mxCell id="iQWIhHvsiNZg3R8XxYZo-116" value="998:20" style="text;html=1;strokeColor=none;fillColor=none;align=center;verticalAlign=middle;whiteSpace=wrap;rounded=0;" vertex="1" parent="1">
          <mxGeometry x="1840" y="345" width="40" height="20" as="geometry" />
        </mxCell>
        <mxCell id="iQWIhHvsiNZg3R8XxYZo-117" value="" style="endArrow=classic;html=1;entryX=0.5;entryY=1;entryDx=0;entryDy=0;" edge="1" parent="1" source="iQWIhHvsiNZg3R8XxYZo-116" target="iQWIhHvsiNZg3R8XxYZo-115">
          <mxGeometry width="50" height="50" relative="1" as="geometry">
            <mxPoint x="1870" y="335" as="sourcePoint" />
            <mxPoint x="1920" y="285" as="targetPoint" />
          </mxGeometry>
        </mxCell>
        <mxCell id="iQWIhHvsiNZg3R8XxYZo-118" value="1001:1330" style="text;html=1;strokeColor=none;fillColor=none;align=center;verticalAlign=middle;whiteSpace=wrap;rounded=0;" vertex="1" parent="1">
          <mxGeometry x="1840" y="485" width="40" height="20" as="geometry" />
        </mxCell>
        <mxCell id="iQWIhHvsiNZg3R8XxYZo-119" value="" style="endArrow=classic;html=1;exitX=0.5;exitY=0;exitDx=0;exitDy=0;entryX=0.5;entryY=1;entryDx=0;entryDy=0;" edge="1" parent="1" source="iQWIhHvsiNZg3R8XxYZo-118" target="iQWIhHvsiNZg3R8XxYZo-116">
          <mxGeometry width="50" height="50" relative="1" as="geometry">
            <mxPoint x="1890" y="495" as="sourcePoint" />
            <mxPoint x="1940" y="445" as="targetPoint" />
          </mxGeometry>
        </mxCell>
        <mxCell id="iQWIhHvsiNZg3R8XxYZo-120" value="" style="endArrow=none;dashed=1;html=1;dashPattern=1 3;strokeWidth=2;entryX=0.386;entryY=1.007;entryDx=0;entryDy=0;entryPerimeter=0;" edge="1" parent="1">
          <mxGeometry width="50" height="50" relative="1" as="geometry">
            <mxPoint x="1898.9203618567403" y="345" as="sourcePoint" />
            <mxPoint x="1885.44" y="220.14" as="targetPoint" />
          </mxGeometry>
        </mxCell>
        <mxCell id="iQWIhHvsiNZg3R8XxYZo-121" value="mnt" style="text;html=1;strokeColor=none;fillColor=none;align=center;verticalAlign=middle;whiteSpace=wrap;rounded=0;" vertex="1" parent="1">
          <mxGeometry x="1880" y="200" width="40" height="20" as="geometry" />
        </mxCell>
        <mxCell id="iQWIhHvsiNZg3R8XxYZo-122" value="emulated" style="text;html=1;strokeColor=none;fillColor=none;align=center;verticalAlign=middle;whiteSpace=wrap;rounded=0;" vertex="1" parent="1">
          <mxGeometry x="1890" y="350" width="40" height="20" as="geometry" />
        </mxCell>
        <mxCell id="iQWIhHvsiNZg3R8XxYZo-123" value="1031:20" style="text;html=1;strokeColor=none;fillColor=none;align=center;verticalAlign=middle;whiteSpace=wrap;rounded=0;" vertex="1" parent="1">
          <mxGeometry x="1978" y="345" width="40" height="20" as="geometry" />
        </mxCell>
        <mxCell id="iQWIhHvsiNZg3R8XxYZo-124" value="1033:20" style="text;html=1;strokeColor=none;fillColor=none;align=center;verticalAlign=middle;whiteSpace=wrap;rounded=0;" vertex="1" parent="1">
          <mxGeometry x="1978" y="485" width="40" height="20" as="geometry" />
        </mxCell>
        <mxCell id="iQWIhHvsiNZg3R8XxYZo-125" value="" style="endArrow=classic;html=1;exitX=0.5;exitY=0;exitDx=0;exitDy=0;entryX=0.5;entryY=1;entryDx=0;entryDy=0;" edge="1" parent="1" source="iQWIhHvsiNZg3R8XxYZo-124" target="iQWIhHvsiNZg3R8XxYZo-123">
          <mxGeometry width="50" height="50" relative="1" as="geometry">
            <mxPoint x="2028" y="495" as="sourcePoint" />
            <mxPoint x="2078" y="445" as="targetPoint" />
          </mxGeometry>
        </mxCell>
        <mxCell id="iQWIhHvsiNZg3R8XxYZo-126" value="self" style="text;html=1;strokeColor=none;fillColor=none;align=center;verticalAlign=middle;whiteSpace=wrap;rounded=0;" vertex="1" parent="1">
          <mxGeometry x="2018" y="345" width="40" height="20" as="geometry" />
        </mxCell>
        <mxCell id="iQWIhHvsiNZg3R8XxYZo-127" value="" style="endArrow=classic;html=1;exitX=0.25;exitY=0;exitDx=0;exitDy=0;" edge="1" parent="1" source="iQWIhHvsiNZg3R8XxYZo-123" target="iQWIhHvsiNZg3R8XxYZo-121">
          <mxGeometry width="50" height="50" relative="1" as="geometry">
            <mxPoint x="1970" y="340" as="sourcePoint" />
            <mxPoint x="2020" y="290" as="targetPoint" />
          </mxGeometry>
        </mxCell>
        <mxCell id="iQWIhHvsiNZg3R8XxYZo-128" value="" style="endArrow=none;dashed=1;html=1;dashPattern=1 3;strokeWidth=2;" edge="1" parent="1" source="iQWIhHvsiNZg3R8XxYZo-126" target="iQWIhHvsiNZg3R8XxYZo-121">
          <mxGeometry width="50" height="50" relative="1" as="geometry">
            <mxPoint x="2040" y="310" as="sourcePoint" />
            <mxPoint x="2090" y="260" as="targetPoint" />
          </mxGeometry>
        </mxCell>
        <mxCell id="iQWIhHvsiNZg3R8XxYZo-129" value="storage" style="text;html=1;strokeColor=none;fillColor=none;align=center;verticalAlign=middle;whiteSpace=wrap;rounded=0;" vertex="1" parent="1">
          <mxGeometry x="1920" y="200" width="40" height="20" as="geometry" />
        </mxCell>
        <mxCell id="iQWIhHvsiNZg3R8XxYZo-131" value="1032:1330" style="text;html=1;strokeColor=none;fillColor=none;align=center;verticalAlign=middle;whiteSpace=wrap;rounded=0;" vertex="1" parent="1">
          <mxGeometry x="2080" y="480" width="40" height="20" as="geometry" />
        </mxCell>
        <mxCell id="iQWIhHvsiNZg3R8XxYZo-132" value="" style="endArrow=classic;html=1;entryX=0.114;entryY=0.979;entryDx=0;entryDy=0;entryPerimeter=0;exitX=0.5;exitY=0;exitDx=0;exitDy=0;" edge="1" parent="1" source="iQWIhHvsiNZg3R8XxYZo-131" target="iQWIhHvsiNZg3R8XxYZo-126">
          <mxGeometry width="50" height="50" relative="1" as="geometry">
            <mxPoint x="2140" y="420" as="sourcePoint" />
            <mxPoint x="2190" y="370" as="targetPoint" />
          </mxGeometry>
        </mxCell>
        <mxCell id="iQWIhHvsiNZg3R8XxYZo-133" value="emulated" style="text;html=1;strokeColor=none;fillColor=none;align=center;verticalAlign=middle;whiteSpace=wrap;rounded=0;" vertex="1" parent="1">
          <mxGeometry x="2058" y="345" width="40" height="20" as="geometry" />
        </mxCell>
      </root>
    </mxGraphModel>
  </diagram>
</mxfile>
